<svg xmlns="http://www.w3.org/2000/svg" version="1.1" xmlns:xlink="http://www.w3.org/1999/xlink" xmlns:svgjs="http://svgjs.com/svgjs" width="1800" height="700" preserveAspectRatio="none" viewBox="0 0 1800 700">
    <g mask="url(&quot;#SvgjsMask7668&quot;)" fill="none">
        <rect width="181.44" height="181.44" clip-path="url(&quot;#SvgjsClipPath7669&quot;)" x="506.6" y="478.34" fill="url(#SvgjsPattern7670)" transform="rotate(137, 597.32, 569.06)"></rect>
        <path d="M1563.06 691.69L1569.21 680.46 1581.52 683.99 1587.67 672.76 1599.98 676.3 1606.13 665.07 1618.44 668.6M1566.14 699.07L1572.29 687.84 1584.6 691.38 1590.75 680.15 1603.06 683.68 1609.21 672.45 1621.52 675.99" stroke="rgba(227, 74, 111, 1)" stroke-width="2.18" stroke-dasharray="2, 2"></path>
        <rect width="264.96" height="264.96" clip-path="url(&quot;#SvgjsClipPath7671&quot;)" x="-98.97" y="511.86" fill="url(#SvgjsPattern7672)" transform="rotate(57.92, 33.51, 644.34)"></rect>
        <rect width="210.96" height="210.96" clip-path="url(&quot;#SvgjsClipPath7673&quot;)" x="-10.75" y="356.39" fill="url(#SvgjsPattern7674)" transform="rotate(335.25, 94.73, 461.87)"></rect>
        <path d="M1806.34 254.01999999999998 L1782.41 378.47L1850.6976457415467 372.56764574154676z" stroke="rgba(247, 249, 249, 1)" stroke-width="1" stroke-dasharray="2, 2"></path>
        <rect width="216" height="216" clip-path="url(&quot;#SvgjsClipPath7675&quot;)" x="1371.94" y="-60.33" fill="url(#SvgjsPattern7676)" transform="rotate(85.24, 1479.94, 47.67)"></rect>
        <path d="M1170.36 141.96 L1164.7 149.54000000000002L1164.0426054056456 142.2626054056458z" stroke="rgba(227, 74, 111, 1)" stroke-width="1"></path>
        <path d="M1231.5 366.54L1243.45 371.14 1241.59 383.81 1253.55 388.41 1251.69 401.08 1263.64 405.67 1261.78 418.34M1224.59 370.58L1236.55 375.18 1234.69 387.85 1246.64 392.44 1244.78 405.11 1256.73 409.71 1254.87 422.38M1217.69 374.62L1229.64 379.21 1227.78 391.89 1239.73 396.48 1237.87 409.15 1249.83 413.75 1247.97 426.42" stroke="rgba(247, 249, 249, 1)" stroke-width="1"></path>
        <rect width="332.64" height="332.64" clip-path="url(&quot;#SvgjsClipPath7677&quot;)" x="388.56" y="532.4" fill="url(#SvgjsPattern7678)" transform="rotate(281.89, 554.88, 698.72)"></rect>
        <rect width="120" height="120" clip-path="url(&quot;#SvgjsClipPath7679&quot;)" x="1304.47" y="164.4" fill="url(#SvgjsPattern7680)" transform="rotate(299.85, 1364.47, 224.4)"></rect>
        <path d="M208.23 766.84 L119.50999999999999 697.28L238.3721040497992 657.5578959502008z" fill="rgba(227, 74, 111, 1)"></path>
        <rect width="222.72" height="222.72" clip-path="url(&quot;#SvgjsClipPath7681&quot;)" x="1532.8" y="-34.75" fill="url(#SvgjsPattern7682)" transform="rotate(138.58, 1644.16, 76.61)"></rect>
    </g>
    <defs>
        <mask id="SvgjsMask7668">
            <rect width="1800" height="700" fill="#ffffff"></rect>
        </mask>
        <pattern x="0" y="0" width="7.56" height="7.56" patternUnits="userSpaceOnUse" id="SvgjsPattern7670">
            <path d="M3.78 1L3.78 6.56M1 3.78L6.56 3.78" stroke="rgba(227, 74, 111, 1)" fill="none" stroke-width="2.48"></path>
        </pattern>
        <clipPath id="SvgjsClipPath7669">
            <circle r="45.36" cx="597.32" cy="569.06"></circle>
        </clipPath>
        <pattern x="0" y="0" width="11.04" height="11.04" patternUnits="userSpaceOnUse" id="SvgjsPattern7672">
            <path d="M5.52 1L5.52 10.04M1 5.52L10.04 5.52" stroke="rgba(247, 249, 249, 1)" fill="none" stroke-width="3.23"></path>
        </pattern>
        <clipPath id="SvgjsClipPath7671">
            <circle r="66.24" cx="33.51" cy="644.34"></circle>
        </clipPath>
        <pattern x="0" y="0" width="11.72" height="11.72" patternUnits="userSpaceOnUse" id="SvgjsPattern7674">
            <path d="M0 11.72L5.86 0L11.72 11.72" stroke="rgba(86, 78, 88, 1)" fill="none"></path>
        </pattern>
        <clipPath id="SvgjsClipPath7673">
            <circle r="52.74" cx="94.73" cy="461.87"></circle>
        </clipPath>
        <pattern x="0" y="0" width="216" height="6" patternUnits="userSpaceOnUse" id="SvgjsPattern7676">
            <rect width="216" height="3" x="0" y="0" fill="rgba(247, 249, 249, 1)"></rect>
            <rect width="216" height="3" x="0" y="3" fill="rgba(0, 0, 0, 0)"></rect>
        </pattern>
        <clipPath id="SvgjsClipPath7675">
            <circle r="54" cx="1479.94" cy="47.67"></circle>
        </clipPath>
        <pattern x="0" y="0" width="7.56" height="7.56" patternUnits="userSpaceOnUse" id="SvgjsPattern7678">
            <path d="M3.78 1L3.78 6.56M1 3.78L6.56 3.78" stroke="rgba(247, 249, 249, 1)" fill="none" stroke-width="1.25"></path>
        </pattern>
        <clipPath id="SvgjsClipPath7677">
            <circle r="83.16" cx="554.88" cy="698.72"></circle>
        </clipPath>
        <pattern x="0" y="0" width="120" height="6" patternUnits="userSpaceOnUse" id="SvgjsPattern7680">
            <rect width="120" height="3" x="0" y="0" fill="rgba(86, 78, 88, 1)"></rect>
            <rect width="120" height="3" x="0" y="3" fill="rgba(0, 0, 0, 0)"></rect>
        </pattern>
        <clipPath id="SvgjsClipPath7679">
            <circle r="30" cx="1364.47" cy="224.4"></circle>
        </clipPath>
        <pattern x="0" y="0" width="13.92" height="13.92" patternUnits="userSpaceOnUse" id="SvgjsPattern7682">
            <path d="M0 13.92L6.96 0L13.92 13.92" stroke="rgba(247, 249, 249, 1)" fill="none"></path>
        </pattern>
        <clipPath id="SvgjsClipPath7681">
            <circle r="55.68" cx="1644.16" cy="76.61"></circle>
        </clipPath>
    </defs>
</svg>